<?xml version="1.0" standalone="no"?><!DOCTYPE svg PUBLIC "-//W3C//DTD SVG 1.1//EN" "http://www.w3.org/Graphics/SVG/1.1/DTD/svg11.dtd"><svg class="icon" width="200px" height="200.00px" viewBox="0 0 1024 1024" version="1.1" xmlns="http://www.w3.org/2000/svg"><path fill="#2c2c2c" d="M691.169147 959.697485 336.673367 959.697485c-149.165298 0-270.090415-120.927163-270.090415-270.095531L66.582953 335.119477c0-149.165298 120.92614-270.091438 270.090415-270.091438l354.494757 0c149.165298 0 270.091438 120.92614 270.091438 270.091438l0 354.482477C961.260585 838.770322 840.333422 959.697485 691.169147 959.697485zM415.13537 225.390353c-136.595005 0-247.276826 92.140537-247.276826 205.819622 0 66.649979 38.031175 125.909641 97.04729 163.502841 0.766456 0.484024 2.275833 1.427512 2.275833 1.427512l-23.903409 74.487481 89.399099-45.317115c0 0 2.793626 0.811482 4.203742 1.208525 24.578792 6.807033 50.889017 10.491958 78.255295 10.491958 5.571902 0 11.093662-0.198521 16.600073-0.502443-5.061272-15.648398-7.846712-32.117488-7.846712-49.104371 0-103.773482 100.879572-187.912787 225.235834-187.912787 3.527336 0 6.956436 0.069585 10.419304 0.239454C641.318786 300.991192 538.83774 225.390353 415.13537 225.390353zM651.026892 414.759305c-115.38596 0-208.939683 77.834716-208.939683 173.8587 0 96.039333 93.553723 173.885306 208.939683 173.885306 23.096021 0 45.308929-3.115967 66.088184-8.890484 1.196245-0.314155 3.545756-1.022283 3.545756-1.022283l75.491345 38.314631-20.160155-62.938448c0 0 1.286296-0.813528 1.912559-1.208525 49.819662-31.766494 81.979106-81.815377 81.979106-138.14122C859.88471 492.592998 766.36578 414.759305 651.026892 414.759305zM723.668329 557.028543c-16.205077 0-29.310559-12.673647-29.310559-28.29237 0-15.598256 13.105482-28.239158 29.310559-28.239158 16.229636 0 29.359678 12.640901 29.359678 28.239158C753.02903 544.354895 739.898988 557.028543 723.668329 557.028543zM578.30359 557.028543c-16.205077 0-29.343305-12.673647-29.343305-28.29237 0-15.598256 13.138228-28.239158 29.343305-28.239158 16.204054 0 29.352515 12.640901 29.352515 28.239158C607.655082 544.354895 594.507644 557.028543 578.30359 557.028543zM501.170862 393.789715c-19.189038 0-34.717709-14.997576-34.717709-33.464159 0-18.49319 15.527648-33.465183 34.717709-33.465183 19.188015 0 34.717709 14.971993 34.717709 33.465183C535.888572 378.792139 520.358877 393.789715 501.170862 393.789715zM329.082482 393.789715c-19.188015 0-34.717709-14.997576-34.717709-33.464159 0-18.49319 15.529695-33.465183 34.717709-33.465183 19.179828 0 34.750455 14.971993 34.750455 33.465183C363.832937 378.792139 348.26231 393.789715 329.082482 393.789715z"  /></svg>