<?xml version="1.0" standalone="no"?><!DOCTYPE svg PUBLIC "-//W3C//DTD SVG 1.1//EN" "http://www.w3.org/Graphics/SVG/1.1/DTD/svg11.dtd"><svg class="icon" width="200px" height="200.00px" viewBox="0 0 1024 1024" version="1.1" xmlns="http://www.w3.org/2000/svg"><path fill="#2c2c2c" d="M897.024 147.456c0-69.632-57.344-126.976-126.976-126.976h-327.68c-20.48 0-36.864 4.096-49.152 12.288-12.288 4.096-28.672 12.288-36.864 20.48L167.936 237.568c-12.288 8.192-20.48 20.48-28.672 36.864-8.192 16.384-12.288 32.768-12.288 53.248v544.768c0 69.632 57.344 126.976 126.976 126.976h516.096c69.632 0 126.976-57.344 126.976-126.976V147.456z m-385.024 147.456c61.44 0 110.592 49.152 110.592 110.592 0 61.44-49.152 110.592-110.592 110.592-61.44 0-110.592-49.152-110.592-110.592 0-61.44 49.152-110.592 110.592-110.592zM659.456 778.24H393.216c-69.632 0-94.208-32.768-77.824-73.728 20.48-53.248 61.44-94.208 110.592-114.688 8.192-4.096 16.384-4.096 24.576 0 40.96 16.384 90.112 12.288 126.976 0 8.192-4.096 16.384-4.096 24.576 0 49.152 24.576 90.112 65.536 110.592 118.784 12.288 32.768-16.384 69.632-53.248 69.632z" /></svg>