<?xml version="1.0" standalone="no"?><!DOCTYPE svg PUBLIC "-//W3C//DTD SVG 1.1//EN" "http://www.w3.org/Graphics/SVG/1.1/DTD/svg11.dtd"><svg class="icon" width="200px" height="200.00px" viewBox="0 0 1024 1024" version="1.1" xmlns="http://www.w3.org/2000/svg"><path fill="#2c2c2c" d="M327.854324 313.395294C305.449752 313.395294 287.304228 294.569412 287.304228 271.42353 287.304228 248.214118 305.449752 229.430588 327.854324 229.430588 350.278705 229.430588 368.444038 248.214118 368.444038 271.42353 368.444038 294.569412 350.278705 313.395294 327.854324 313.395294M528.841752 229.430588C551.246324 229.430588 569.372038 248.214118 569.372038 271.42353 569.372038 294.569412 551.246324 313.395294 528.841752 313.395294 506.437181 313.395294 488.311467 294.569412 488.311467 271.42353 488.311467 248.214118 506.437181 229.430588 528.841752 229.430588M701.660038 320.552941C705.760609 320.552941 709.781943 320.637647 713.803276 320.849412 692.527848 196.967059 572.818895 102.117647 428.348038 102.117647 268.841752 102.117647 139.54499 217.72 139.54499 360.34353 139.54499 443.948236 183.977752 518.298824 252.914895 565.458824 253.806324 566.072941 255.569372 567.237647 255.569372 567.237647L227.637943 660.689412 332.053943 603.851764C332.053943 603.851764 335.322515 604.868236 336.966705 605.355294 365.670705 613.889412 396.415085 618.527059 428.348038 618.527059 434.865372 618.527059 441.343085 618.251764 447.761372 617.891764 441.838324 598.261176 438.589562 577.614118 438.589562 556.289412 438.589562 426.09647 556.3968 320.552941 701.660038 320.552941"  /><path fill="#2c2c2c" d="M584.661028 482.684236C584.661028 463.117176 599.9936 447.256 618.911695 447.256 637.869409 447.256 653.201981 463.117176 653.201981 482.684236 653.201981 502.293647 637.869409 518.176 618.911695 518.176 599.9936 518.176 584.661028 502.293647 584.661028 482.684236M754.468267 482.684236C754.468267 463.117176 769.78103 447.256 788.699123 447.256 807.656838 447.256 822.989408 463.117176 822.989408 482.684236 822.989408 502.293647 807.656838 518.176 788.699123 518.176 769.78103 518.176 754.468267 502.293647 754.468267 482.684236M459.821409 557.818353C459.821409 678.291294 569.090743 775.978355 703.854933 775.978355 730.815695 775.978355 756.785981 772.039526 781.052646 764.797178 782.439315 764.416 785.192838 763.526586 785.192838 763.526586L873.36503 811.576 849.791693 732.630118C849.791693 732.630118 851.297216 731.613645 852.049984 731.105414 910.230554 691.27247 947.809216 628.484236 947.809216 557.818353 947.809216 437.345412 838.579507 339.700706 703.854933 339.700706 569.090743 339.700706 459.821409 437.345412 459.821409 557.818353"  /></svg>